{
  "asset": {
    "version": "2.0",
    "generator": "Sketchup glTF Exporter"
  },
  "scene": 0,
  "scenes": [
    {
      "nodes": [
        0
      ]
    }
  ],
  "nodes": [
    {
      "name": "root",
      "children": [
        1
      ]
    },
    {
      "name": "Component#4",
      "children": [
        2
      ],
      "mesh": 1
    },
    {
      "mesh": 0
    }
  ],
  "materials": [
    {
      "pbrMetallicRoughness": {
        "baseColorTexture": {
          "index": 0
        },
        "metallicFactor": 0.85
      },
      "name": "[Metal_Aluminum_Anodized]1"
    },
    {
      "pbrMetallicRoughness": {
        "baseColorFactor": [
          0.0,
          0.0,
          0.0,
          1.0
        ],
        "metallicFactor": 0.0
      },
      "name": "Color_009"
    },
    {
      "pbrMetallicRoughness": {
        "baseColorFactor": [
          1.0,
          1.0,
          1.0,
          1.0
        ],
        "metallicFactor": 0.0
      },
      "name": "Color_000"
    },
    {
      "pbrMetallicRoughness": {
        "baseColorFactor": [
          0.5,
          0.5,
          0.5,
          1.0
        ]
      },
      "name": "default material",
      "doubleSided": true
    },
    {
      "pbrMetallicRoughness": {
        "baseColorTexture": {
          "index": 1
        },
        "metallicFactor": 0.0
      },
      "name": "dock-missing-bkg",
      "doubleSided": true
    }
  ],
  "images": [
    {
      "bufferView": 0,
      "mimeType": "image/jpeg"
    },
    {
      "bufferView": 1,
      "mimeType": "image/png"
    }
  ],
  "textures": [
    {
      "source": 0
    },
    {
      "source": 1
    }
  ],
  "meshes": [
    {
      "primitives": [
        {
          "attributes": {
            "POSITION": 0,
            "NORMAL": 1
          },
          "indices": 5,
          "mode": 4,
          "material": 3
        }
      ]
    },
    {
      "primitives": [
        {
          "attributes": {
            "POSITION": 2,
            "NORMAL": 3,
            "TEXCOORD_0": 4
          },
          "indices": 6,
          "mode": 4,
          "material": 0
        },
        {
          "attributes": {
            "POSITION": 0,
            "NORMAL": 1
          },
          "indices": 7,
          "mode": 4,
          "material": 1
        },
        {
          "attributes": {
            "POSITION": 0,
            "NORMAL": 1
          },
          "indices": 8,
          "mode": 4,
          "material": 2
        },
        {
          "attributes": {
            "POSITION": 0,
            "NORMAL": 1
          },
          "indices": 9,
          "mode": 4,
          "material": 3
        },
        {
          "attributes": {
            "POSITION": 2,
            "NORMAL": 3,
            "TEXCOORD_0": 4
          },
          "indices": 10,
          "mode": 4,
          "material": 4
        }
      ]
    }
  ],
  "accessors": [
    {
      "bufferView": 2,
      "componentType": 5126,
      "count": 198,
      "type": "VEC3",
      "min": [
        -0.33,
        -0.01,
        -0.03
      ],
      "max": [
        0.02,
        0.21,
        0.33
      ]
    },
    {
      "bufferView": 3,
      "componentType": 5126,
      "count": 198,
      "type": "VEC3",
      "min": [
        -0.02,
        -1.01,
        -0.88
      ],
      "max": [
        0.02,
        1.01,
        0.02
      ]
    },
    {
      "bufferView": 4,
      "componentType": 5126,
      "count": 547,
      "type": "VEC3",
      "min": [
        -0.33,
        -0.01,
        -0.03
      ],
      "max": [
        0.02,
        0.21,
        0.33
      ]
    },
    {
      "bufferView": 5,
      "componentType": 5126,
      "count": 547,
      "type": "VEC3",
      "min": [
        -1.01,
        -1.01,
        -1.01
      ],
      "max": [
        1.01,
        1.01,
        1.01
      ]
    },
    {
      "bufferView": 6,
      "componentType": 5126,
      "count": 547,
      "type": "VEC2",
      "min": [
        -0.26,
        -0.02
      ],
      "max": [
        1.02,
        1.16
      ]
    },
    {
      "bufferView": 7,
      "componentType": 5121,
      "count": 6,
      "type": "SCALAR"
    },
    {
      "bufferView": 8,
      "componentType": 5123,
      "count": 1044,
      "type": "SCALAR"
    },
    {
      "bufferView": 7,
      "componentType": 5121,
      "count": 384,
      "type": "SCALAR",
      "byteOffset": 6
    },
    {
      "bufferView": 7,
      "componentType": 5121,
      "count": 144,
      "type": "SCALAR",
      "byteOffset": 390
    },
    {
      "bufferView": 7,
      "componentType": 5121,
      "count": 18,
      "type": "SCALAR",
      "byteOffset": 534
    },
    {
      "bufferView": 8,
      "componentType": 5123,
      "count": 12,
      "type": "SCALAR",
      "byteOffset": 2088
    }
  ],
  "bufferViews": [
    {
      "buffer": 0,
      "byteLength": 4474
    },
    {
      "buffer": 0,
      "byteOffset": 4474,
      "byteLength": 1122464
    },
    {
      "buffer": 0,
      "byteOffset": 1126944,
      "byteLength": 2376,
      "target": 34962,
      "byteStride": 12
    },
    {
      "buffer": 0,
      "byteOffset": 1129320,
      "byteLength": 2376,
      "target": 34962,
      "byteStride": 12
    },
    {
      "buffer": 0,
      "byteOffset": 1131696,
      "byteLength": 6564,
      "target": 34962,
      "byteStride": 12
    },
    {
      "buffer": 0,
      "byteOffset": 1138260,
      "byteLength": 6564,
      "target": 34962,
      "byteStride": 12
    },
    {
      "buffer": 0,
      "byteOffset": 1144824,
      "byteLength": 4376,
      "target": 34962,
      "byteStride": 8
    },
    {
      "buffer": 0,
      "byteOffset": 1149200,
      "byteLength": 552,
      "target": 34963
    },
    {
      "buffer": 0,
      "byteOffset": 1149752,
      "byteLength": 2112,
      "target": 34963
    }
  ],
  "buffers": [
    {
      "uri": "data:application/octet-stream;base64,",
      "byteLength": 1151864
    }
  ]
}