{
  "asset": {
    "version": "2.0",
    "generator": "Sketchup glTF Exporter"
  },
  "scene": 0,
  "scenes": [
    {
      "nodes": [
        0
      ]
    }
  ],
  "nodes": [
    {
      "name": "root",
      "children": [
        1
      ]
    },
    {
      "name": "组件#5",
      "mesh": 0
    }
  ],
  "materials": [
    {
      "pbrMetallicRoughness": {
        "baseColorFactor": [
          0.8,
          0.8,
          0.8,
          1.0
        ],
        "metallicFactor": 0.0
      },
      "name": "Material1",
      "doubleSided": true
    },
    {
      "pbrMetallicRoughness": {
        "baseColorTexture": {
          "index": 0
        },
        "metallicFactor": 0.0
      },
      "name": "Wood_Floor_Light"
    }
  ],
  "images": [
    {
      "bufferView": 0,
      "mimeType": "image/jpeg"
    }
  ],
  "textures": [
    {
      "source": 0
    }
  ],
  "meshes": [
    {
      "primitives": [
        {
          "attributes": {
            "POSITION": 0,
            "NORMAL": 1
          },
          "indices": 5,
          "mode": 4,
          "material": 0
        },
        {
          "attributes": {
            "POSITION": 2,
            "NORMAL": 3,
            "TEXCOORD_0": 4
          },
          "indices": 6,
          "mode": 4,
          "material": 1
        }
      ]
    }
  ],
  "accessors": [
    {
      "bufferView": 1,
      "componentType": 5126,
      "count": 4,
      "type": "VEC3",
      "min": [
        -0.91,
        -0.01,
        1.12
      ],
      "max": [
        -0.73,
        0.02,
        1.31
      ]
    },
    {
      "bufferView": 2,
      "componentType": 5126,
      "count": 4,
      "type": "VEC3",
      "min": [
        -0.02,
        -1.01,
        -0.01
      ],
      "max": [
        0.02,
        -0.99,
        0.02
      ]
    },
    {
      "bufferView": 3,
      "componentType": 5126,
      "count": 92,
      "type": "VEC3",
      "min": [
        -0.91,
        -0.01,
        -1.15
      ],
      "max": [
        0.23,
        0.63,
        1.31
      ]
    },
    {
      "bufferView": 4,
      "componentType": 5126,
      "count": 92,
      "type": "VEC3",
      "min": [
        -1.01,
        -1.01,
        -1.01
      ],
      "max": [
        1.01,
        1.01,
        1.01
      ]
    },
    {
      "bufferView": 5,
      "componentType": 5126,
      "count": 92,
      "type": "VEC2",
      "min": [
        -2.47,
        -1.94
      ],
      "max": [
        2.47,
        1.01
      ]
    },
    {
      "bufferView": 6,
      "componentType": 5121,
      "count": 6,
      "type": "SCALAR"
    },
    {
      "bufferView": 7,
      "componentType": 5121,
      "count": 174,
      "type": "SCALAR"
    }
  ],
  "bufferViews": [
    {
      "buffer": 0,
      "byteLength": 39446
    },
    {
      "buffer": 0,
      "byteOffset": 39456,
      "byteLength": 48,
      "target": 34962,
      "byteStride": 12
    },
    {
      "buffer": 0,
      "byteOffset": 39504,
      "byteLength": 48,
      "target": 34962,
      "byteStride": 12
    },
    {
      "buffer": 0,
      "byteOffset": 39552,
      "byteLength": 1104,
      "target": 34962,
      "byteStride": 12
    },
    {
      "buffer": 0,
      "byteOffset": 40656,
      "byteLength": 1104,
      "target": 34962,
      "byteStride": 12
    },
    {
      "buffer": 0,
      "byteOffset": 41760,
      "byteLength": 736,
      "target": 34962,
      "byteStride": 8
    },
    {
      "buffer": 0,
      "byteOffset": 42496,
      "byteLength": 6,
      "target": 34963
    },
    {
      "buffer": 0,
      "byteOffset": 42502,
      "byteLength": 174,
      "target": 34963
    }
  ],
  "buffers": [
    {
      "uri": "data:application/octet-stream;base64,",
      "byteLength": 42676
    }
  ]
}